<?xml version="1.0" standalone="no"?><!DOCTYPE svg PUBLIC "-//W3C//DTD SVG 1.1//EN" "http://www.w3.org/Graphics/SVG/1.1/DTD/svg11.dtd"><svg t="1683437610007" class="icon" viewBox="0 0 1043 1024" version="1.1" xmlns="http://www.w3.org/2000/svg" p-id="3302" xmlns:xlink="http://www.w3.org/1999/xlink" width="203.7109375" height="200"><path d="M264.629213 786.217228h511.232959v18.408989H264.629213z" fill="#F2F2F2" p-id="3303"></path><path d="M264.629213 767.80824h511.232959v18.408988H264.629213z" fill="" p-id="3304"></path><path d="M264.629213 749.399251h511.232959v18.408989H264.629213z" fill="#F2F2F2" p-id="3305"></path><path d="M264.629213 730.990262h511.232959v18.408989H264.629213z" fill="" p-id="3306"></path><path d="M264.629213 712.581273h511.232959v18.408989H264.629213z" fill="#F2F2F2" p-id="3307"></path><path d="M264.629213 694.172285h511.232959v18.408988H264.629213z" fill="" p-id="3308"></path><path d="M264.629213 675.763296h511.232959v18.408989H264.629213z" fill="#F2F2F2" p-id="3309"></path><path d="M264.629213 657.354307h511.232959v18.408989H264.629213z" fill="" p-id="3310"></path><path d="M264.629213 638.945318h511.232959v18.408989H264.629213z" fill="#F2F2F2" p-id="3311"></path><path d="M264.629213 620.53633h511.232959v18.408988H264.629213z" fill="" p-id="3312"></path><path d="M264.629213 602.127341h511.232959v18.408989H264.629213zM264.629213 565.309363h511.232959v18.408989H264.629213z" fill="#F2F2F2" p-id="3313"></path><path d="M264.629213 583.718352h511.232959v18.408989H264.629213z" fill="" p-id="3314"></path><path d="M16.107865 913.546067L0 904.341573 521.971536 0l521.971535 904.341573-15.724344 9.204494-506.247191-876.728089z" fill="#F2F2F2" p-id="3315"></path><path d="M31.83221 922.750562l-15.724345-9.204495L521.971536 36.817978l506.247191 876.728089-16.107866 9.204495L521.971536 73.635955z" fill="" p-id="3316"></path><path d="M47.940075 931.955056l-16.107865-9.204494L521.971536 73.635955l490.139325 849.114607-15.724344 9.204494L521.971536 110.453933z" fill="#F2F2F2" p-id="3317"></path><path d="M63.664419 941.159551l-15.724344-9.204495L521.971536 110.453933 996.386517 931.955056l-16.107865 9.204495-458.307116-793.887641z" fill="" p-id="3318"></path><path d="M79.772285 950.364045l-16.107866-9.204494 458.307117-793.887641 458.307116 793.887641-15.724345 9.204494L521.971536 184.089888z" fill="#F2F2F2" p-id="3319"></path><path d="M95.496629 959.568539l-15.724344-9.204494L521.971536 184.089888l442.582771 766.274157-16.107865 9.204494L521.971536 220.907865z" fill="" p-id="3320"></path><path d="M111.604494 968.773034l-16.107865-9.204495L521.971536 220.907865l426.474906 738.660674-16.107865 9.204495-410.367041-711.047191z" fill="#F2F2F2" p-id="3321"></path><path d="M127.71236 977.977528l-16.107866-9.204494 410.367042-711.047191 410.367041 711.047191-15.724345 9.204494L521.971536 294.54382z" fill="" p-id="3322"></path><path d="M143.436704 987.182022l-15.724344-9.204494L521.971536 294.54382 916.614232 977.977528l-16.107865 9.204494-378.534831-655.820224z" fill="#F2F2F2" p-id="3323"></path><path d="M159.544569 996.386517l-16.107865-9.204495 378.534832-655.820224 378.534831 655.820224-15.724345 9.204495L521.971536 368.179775z" fill="" p-id="3324"></path><path d="M175.268914 1005.591011l-15.724345-9.204494L521.971536 368.179775l362.810486 628.206742-16.107865 9.204494-346.702621-600.593258z" fill="#F2F2F2" p-id="3325"></path><path d="M207.101124 1024l-15.724345-9.204494 330.594757-572.979776 330.978277 572.979776-16.107865 9.204494-314.870412-545.366292z" fill="#F2F2F2" p-id="3326"></path><path d="M191.376779 1014.795506l-16.107865-9.204495 346.702622-600.593258 346.702621 600.593258-15.724344 9.204495-330.978277-572.979776z" fill="" p-id="3327"></path></svg>