<?xml version="1.0" standalone="no"?><!DOCTYPE svg PUBLIC "-//W3C//DTD SVG 1.1//EN" "http://www.w3.org/Graphics/SVG/1.1/DTD/svg11.dtd"><svg t="1683100668269" class="icon" viewBox="0 0 1024 1024" version="1.1" xmlns="http://www.w3.org/2000/svg" p-id="6668" xmlns:xlink="http://www.w3.org/1999/xlink" width="200" height="200"><path d="M546.133333 977.749333C298.666667 977.749333 97.450667 776.533333 97.450667 529.066667S298.666667 80.384 546.133333 80.384 994.816 281.6 994.816 529.066667 793.6 977.749333 546.133333 977.749333z m0-829.098666c-209.749333 0-380.416 170.666667-380.416 380.416s170.666667 380.416 380.416 380.416 380.416-170.666667 380.416-380.416S755.882667 148.650667 546.133333 148.650667z" fill="#231815" p-id="6669"></path><path d="M498.517333 692.906667c-10.752 0-21.504-2.56-31.402666-7.850667a67.584 67.584 0 0 1-36.010667-59.904V432.981333c0-25.088 13.824-48.128 36.010667-59.904 22.186667-11.776 48.981333-10.24 69.802666 3.925334l133.12 96.426666c18.261333 12.629333 29.184 33.450667 29.184 55.637334 0 22.357333-11.093333 43.349333-29.696 55.978666l-131.925333 95.573334c-12.117333 8.192-25.6 12.288-39.082667 12.288z m-1.024-260.096l1.706667 192.341333 131.072-95.914667-0.341333-0.341333h0.341333l-132.778667-96.085333z" fill="#231815" p-id="6670"></path></svg>